<svg width="209" height="88" viewBox="0 0 209 88" fill="none" xmlns="http://www.w3.org/2000/svg">
<path d="M47.1869 36.8399C47.1937 36.6393 47.2062 36.4388 47.2062 36.2383C47.2062 31.0255 47.2062 25.8115 47.2062 20.5988C47.2062 20.4157 47.2062 20.2315 47.2062 20.0566C47.5708 19.9482 51.3853 19.9202 52.0805 20.0181C52.0908 20.1394 52.1101 20.2677 52.1101 20.3958C52.1113 28.4756 52.1124 36.5554 52.1067 44.6352C52.1067 44.8088 52.217 45.0608 51.9079 45.1108C51.8738 45.1108 51.8398 45.1108 51.8056 45.1108C50.4842 45.105 49.1628 45.1027 47.8414 45.0911C47.0687 45.084 47.2811 45.2017 46.871 44.5663C43.4282 39.2369 39.9911 33.904 36.5518 28.5724C36.462 28.4337 36.3631 28.2996 36.2688 28.1644C36.2381 28.1142 36.2075 28.064 36.1314 27.9404C36.1314 28.0792 36.1314 28.1352 36.1314 28.1912C36.1256 28.3917 36.1143 28.5922 36.1143 28.7939C36.1143 34.0079 36.1143 39.2218 36.1143 44.4346V45.0596H31.291C31.1899 44.6993 31.141 21.247 31.2467 19.9854C31.3932 19.9797 31.5488 19.9679 31.7046 19.9679C33.0113 19.9667 34.319 19.9809 35.6257 19.9586C35.9791 19.9528 36.1824 20.0694 36.3745 20.3702C38.4061 23.552 40.4524 26.7244 42.4942 29.8992C43.9066 32.0946 45.3189 34.2912 46.7324 36.4865C46.8131 36.6113 46.9062 36.7257 46.9937 36.8457C47.0425 36.9284 47.0926 37.0113 47.1414 37.0928C47.1607 37.0847 47.18 37.0765 47.1993 37.0696C47.1947 36.9938 47.1892 36.9168 47.1846 36.841L47.1869 36.8399Z" fill="#CC005F"/>
<path d="M116.231 30.2987C116.377 30.3056 116.524 30.3196 116.67 30.3196C119.807 30.3207 122.944 30.3207 126.081 30.3196C126.238 30.3196 126.396 30.3056 126.601 30.2963V20.0526H131.466V45.0765H126.723C126.689 45.0486 126.656 45.0206 126.623 44.9926C126.616 44.8096 126.601 44.6265 126.601 44.4423C126.599 41.2954 126.601 38.1499 126.601 35.003V34.4505C126.434 34.4376 126.322 34.4225 126.212 34.4213C122.966 34.4201 119.721 34.4213 116.475 34.4213C116.394 34.4213 116.312 34.4341 116.232 34.4422C116.203 34.4714 116.175 34.4993 116.148 34.5286C116.14 34.7115 116.126 34.8958 116.126 35.0788C116.125 38.2105 116.126 41.3421 116.126 44.4738V45.0555H111.247C111.24 44.9169 111.227 44.7885 111.227 44.6592C111.227 36.5863 111.227 28.5148 111.227 20.4419C111.227 20.3417 111.237 20.2415 111.242 20.1411C111.272 20.1085 111.302 20.0759 111.331 20.0445C112.865 20.0386 114.399 20.0328 115.934 20.0293C115.979 20.0293 116.026 20.0514 116.126 20.0771V20.6065C116.126 23.6215 116.126 26.6376 116.126 29.6526C116.126 29.8369 116.138 30.0199 116.145 30.2042C116.175 30.2357 116.203 30.266 116.233 30.2975L116.231 30.2987Z" fill="#CC005F"/>
<path d="M61.7123 45.0741H56.9766V20.0572H61.835C61.8453 21.8841 61.8385 23.7192 61.8396 25.5555C61.8408 27.3942 61.8396 29.2328 61.8396 31.1998C62.0134 31.0132 62.1134 30.9199 62.1975 30.8138C64.896 27.4035 67.5992 23.9979 70.2795 20.5736C70.5965 20.169 70.9078 19.9977 71.4202 20.0093C72.9712 20.0478 74.5245 20.0233 76.0777 20.0233C76.2345 20.0233 76.3913 20.0233 76.6561 20.0233C73.2553 24.2124 69.9261 28.3141 66.5788 32.438C67.0572 33.0244 67.5151 33.5886 67.9764 34.1518C70.8045 37.6041 73.6326 41.0563 76.4595 44.5097C76.5538 44.6241 76.6368 44.7487 76.7242 44.8688C76.7197 44.9377 76.7163 45.0052 76.7117 45.0741C74.8028 45.0798 72.8951 45.0798 70.9862 45.0973C70.7215 45.0997 70.6124 44.9341 70.4806 44.7686C69.4172 43.4336 68.3547 42.0987 67.2923 40.7637C65.6415 38.6896 63.9916 36.6142 62.3396 34.5412C62.2475 34.4258 62.1429 34.3209 62.043 34.2112C61.9907 34.1612 61.9396 34.1122 61.8873 34.062C61.8817 34.1179 61.8748 34.174 61.8691 34.2299C61.8589 34.4293 61.8396 34.6287 61.8396 34.8268C61.8373 38.0319 61.8396 41.2371 61.8373 44.4434C61.8373 44.6263 61.8214 44.8094 61.8134 44.9912C61.7794 45.0192 61.7453 45.0461 61.7123 45.0741Z" fill="#CC005F"/>
<path d="M103.38 21.0665C103.721 21.3277 104.062 21.5888 104.403 21.8488C104.42 21.8651 104.438 21.8827 104.455 21.899C105.578 22.8585 106.199 24.1177 106.513 25.5529C106.597 25.9388 106.625 26.3376 106.684 26.7608H101.239C101.309 26.0916 100.993 25.5716 100.654 25.0598C100.696 25.0411 100.74 25.0236 100.782 25.0049C100.679 24.8534 100.588 24.6913 100.469 24.5537C100.375 24.4441 100.249 24.4185 100.144 24.5631C99.2091 23.9207 98.1695 23.7575 97.0729 23.8541C96.114 23.9382 95.3368 24.3555 94.7789 25.174C94.6471 25.1892 94.4903 25.1915 94.6778 25.3758C94.6051 25.7161 94.5074 26.0531 94.4642 26.3982C94.3778 27.085 94.5301 27.7215 94.9301 28.2882C94.888 28.3069 94.846 28.3243 94.8028 28.3429C94.9051 28.4945 94.9959 28.6565 95.1141 28.793C95.2084 28.9014 95.3334 28.9294 95.4391 28.786C96.6651 29.6557 98.0911 30.0242 99.4773 30.4965C100.618 30.8847 101.749 31.3055 102.88 31.7229C103.058 31.7882 103.217 31.9095 103.384 32.0051C103.369 32.0552 103.354 32.1042 103.338 32.1544C103.385 32.1136 103.43 32.0727 103.477 32.0307C104.059 32.2662 104.553 32.6335 104.987 33.0918C104.955 33.1547 104.885 33.2294 104.897 33.2806C104.969 33.5569 105.066 33.6048 105.479 33.6024C106.282 34.4046 106.706 35.406 106.872 36.5207C107.177 38.5796 106.778 40.4778 105.556 42.1672C105.441 42.3269 105.297 42.4645 105.166 42.6125C105.066 42.433 104.925 42.4423 104.813 42.5729C104.69 42.7151 104.456 42.8539 104.69 43.094C103.901 43.9066 102.928 44.4023 101.892 44.7846C101.168 45.0517 100.429 45.258 99.6557 45.2976C99.5761 45.1775 99.509 45.2033 99.4511 45.3175C98.7035 45.3175 97.9559 45.3175 97.2093 45.3175C97.0968 45.1531 96.9651 45.1426 96.8173 45.2661C96.4946 45.2277 96.172 45.1927 95.8492 45.1507C95.7118 45.132 95.5754 45.0983 95.4391 45.0726C95.305 44.7718 95.0232 44.8535 94.7903 44.808C91.6998 44.0269 89.2103 41.3021 89.291 37.8987H94.4869C94.5097 38.0188 94.5368 38.1459 94.555 38.2741C94.7903 39.9414 95.981 41.0328 97.5854 41.1749C98.4557 41.2519 99.3159 41.2111 100.138 40.8625C100.172 40.8381 100.204 40.8135 100.238 40.7891C100.271 40.7798 100.306 40.7692 100.338 40.7599C100.377 40.8123 100.416 40.8649 100.454 40.9173C100.482 40.8369 100.508 40.7576 100.535 40.6771C101.035 40.3472 101.384 39.8808 101.668 39.3562C101.849 39.1964 101.951 39.0134 101.843 38.7639C101.837 38.6589 101.832 38.554 101.826 38.4491C102.081 38.2649 102.081 38.1296 101.826 37.9442C101.821 37.7752 101.816 37.6073 101.811 37.4383C101.789 37.4068 101.768 37.3765 101.747 37.345C101.736 37.2739 101.726 37.2016 101.715 37.1304C101.689 37.1013 101.664 37.071 101.639 37.0418C101.43 36.72 101.22 36.3983 101.011 36.0764C101.015 36.0274 101.029 35.9751 101.017 35.9308C101.001 35.8747 100.962 35.8258 100.933 35.7745C100.9 35.8223 100.866 35.8701 100.833 35.9179C99.7829 35.1438 98.5569 34.8021 97.3445 34.4278C96.9423 34.3042 96.5299 34.2111 96.1219 34.1038C96.1037 33.9451 96.0014 33.9184 95.8708 33.9359C95.7572 33.8997 95.6447 33.8636 95.5311 33.8274C95.5061 33.7715 95.4811 33.7154 95.4561 33.6583C95.4106 33.6945 95.3651 33.7318 95.3198 33.768C93.9699 33.3249 92.6474 32.8353 91.5043 31.9246C90.3851 31.0339 89.7283 29.8774 89.4614 28.4724C89.4 28.1482 89.3966 27.8113 89.3671 27.4801C89.4239 27.437 89.4807 27.3939 89.5375 27.3508C89.4795 27.2937 89.4204 27.2354 89.3625 27.1782C89.2784 26.0939 89.4841 25.0598 89.8829 24.0594C90.1988 23.9789 90.2442 23.8974 90.1158 23.6431C90.6225 22.5496 91.4248 21.7323 92.4145 21.1073C93.3802 20.4976 94.4324 20.1431 95.5515 19.9088C97.2297 19.5578 98.8863 19.5962 100.546 19.9297C101.524 20.1256 102.467 20.4405 103.299 21.0303C103.272 21.0665 103.239 21.1004 103.22 21.1399C103.215 21.1494 103.254 21.1808 103.273 21.2017C103.309 21.1563 103.343 21.112 103.378 21.0665H103.38Z" fill="#CC005F"/>
<path d="M0.228627 44.993C0.219538 44.8099 0.20363 44.6257 0.20363 44.4426C0.202494 36.5168 0.20363 28.5897 0.20363 20.6639V20.046C0.363836 20.0377 0.474059 20.0273 0.58427 20.0273C3.62255 20.0273 6.65969 20.0017 9.69684 20.0436C11.3535 20.0669 12.9589 20.3969 14.4327 21.2503C16.3835 22.3801 17.5198 24.0893 17.88 26.3372C17.9822 26.9761 18.0164 27.6419 17.9766 28.2878C17.8766 29.9084 17.38 31.3949 16.3392 32.6494C15.2632 33.9471 13.8679 34.7085 12.2772 35.1142C11.4194 35.3333 10.5456 35.4465 9.66048 35.4476C8.32086 35.4476 6.98238 35.4512 5.64276 35.4522C5.4837 35.4522 5.32349 35.4522 5.11215 35.4522V45.0769H0.33202L0.228627 44.993ZM5.12578 31.3716C5.27462 31.3833 5.40075 31.4008 5.52687 31.4008C6.71877 31.4019 7.90954 31.4077 9.10031 31.3949C9.45822 31.3914 9.81955 31.3634 10.1718 31.3004C11.5034 31.0649 12.4579 30.3584 12.8271 28.9675C13.0407 28.1594 13.026 27.3433 12.8271 26.5342C12.5624 25.4569 11.8989 24.7551 10.8808 24.396C10.2388 24.1698 9.57185 24.1267 8.90148 24.1231C7.77547 24.1184 6.64946 24.1208 5.52347 24.1231C5.39848 24.1231 5.27349 24.1418 5.12691 24.1535V31.3704L5.12578 31.3716Z" fill="#CC005F"/>
<path d="M141.262 30.2999C141.434 30.3244 141.604 30.371 141.774 30.3721C144.142 30.3768 146.511 30.3757 148.88 30.3757H149.431V34.3363H141.253C141.241 34.5088 141.227 34.6219 141.227 34.735C141.226 36.7125 141.227 38.6898 141.227 40.6684C141.227 40.7348 141.238 40.8013 141.245 40.8677C141.273 40.9015 141.303 40.9365 141.331 40.9704C141.509 40.9785 141.689 40.9936 141.867 40.9948C144.547 40.9983 147.225 41.0007 149.904 41.0029C150.08 41.0029 150.257 41.0029 150.42 41.0029C150.53 41.4041 150.552 44.4645 150.456 45.0638H136.352V19.999H150.416C150.531 20.3453 150.562 23.449 150.449 24.0634H141.294C141.265 24.152 141.229 24.2115 141.229 24.2709C141.231 26.2484 141.238 28.2258 141.242 30.2032C141.24 30.2148 141.233 30.2276 141.236 30.2381C141.241 30.2591 141.252 30.28 141.262 30.2999Z" fill="#CC005F"/>
<path d="M185.253 45.9947C184.679 46.8319 184.108 47.6713 183.529 48.5038C183.126 49.0833 182.707 49.6511 182.295 50.2247C182.267 50.2573 182.242 50.2888 182.214 50.3215C181.464 51.3404 180.744 52.384 179.957 53.3715C178.924 54.6715 177.838 55.9284 176.775 57.2039C176.515 57.5151 176.266 57.8369 175.997 58.1377C175.824 58.3312 175.621 58.4968 175.432 58.6753C175.405 58.7009 175.379 58.7277 175.353 58.7533C174.547 59.6721 173.677 60.5163 172.64 61.1574C172.305 61.3649 171.923 61.4326 171.53 61.3253C171.507 61.3277 171.485 61.3312 171.462 61.3336C171.479 61.3627 171.494 61.3918 171.511 61.4222C171.672 61.871 171.822 62.3257 172.001 62.7665C172.518 64.0372 173.08 65.2895 173.561 66.5742C173.832 67.2948 173.987 68.0608 174.176 68.8116C174.446 69.8807 174.655 70.9697 174.975 72.0226C175.232 72.8667 175.405 73.7317 175.581 74.5864C175.712 75.2195 175.94 75.8455 175.946 76.5101C175.949 76.7352 176.012 76.9591 176.048 77.1841C176.076 77.2213 176.104 77.2587 176.132 77.2959C176.144 77.3904 176.158 77.4849 176.172 77.5793C176.19 77.6855 176.209 77.7927 176.228 77.8987C176.673 80.4894 176.935 83.0987 176.945 85.7314C176.924 85.7733 176.904 85.8153 176.883 85.8572C176.789 85.9763 176.819 86.0531 176.977 86.1359C176.997 86.0194 177.011 85.9412 177.024 85.8619C177.03 85.8269 177.035 85.792 177.041 85.7558C177.143 85.6159 177.245 85.4761 177.346 85.3361C177.572 85.2848 177.489 85.0924 177.513 84.9501C177.545 84.7415 177.575 84.5328 177.607 84.3253C177.607 84.295 177.607 84.2646 177.607 84.2355C177.617 83.9241 177.635 83.6117 177.637 83.2993C177.645 82.6452 177.57 81.9922 177.661 81.3347C177.728 80.8613 177.716 80.3774 177.74 79.8983C177.759 79.8633 177.778 79.8296 177.799 79.7945C177.8 79.7619 177.809 79.7316 177.825 79.7024C178.087 79.5823 178.073 79.3317 178.097 79.0997C178.196 78.9656 178.295 78.8315 178.396 78.6975C178.586 78.6881 178.591 78.5481 178.591 78.4048C178.598 78.3674 178.604 78.3313 178.612 78.294C178.796 78.2754 178.785 78.1319 178.786 77.9991C178.957 77.4744 178.979 76.9322 178.968 76.3855C178.999 76.3855 179.03 76.3831 179.062 76.3819C179.076 76.4122 179.082 76.4437 179.079 76.4776C179.093 76.6303 179.022 76.818 179.237 76.889C179.149 77.3042 179.269 77.7449 179.077 78.1495C178.959 78.3989 178.917 78.7032 178.752 78.9073C178.485 79.2349 178.335 79.6103 178.316 79.9997C178.292 80.557 178.191 81.1015 178.261 81.681C178.386 82.7023 178.398 83.7434 178.373 84.7741C178.355 85.4772 178.055 86.1277 177.607 86.6653C177.439 86.867 177.171 87.0068 176.922 87.106C176.608 87.2307 176.398 87.1048 176.141 86.7363C176.135 86.6127 176.158 86.4729 175.986 86.4414C175.963 86.3131 175.93 86.1861 175.919 86.0566C175.89 85.6485 175.87 85.2393 175.846 84.8312C175.963 84.6168 176.053 84.4046 175.787 84.2285C175.773 83.9918 175.759 83.7564 175.745 83.5196C175.745 83.4893 175.745 83.4601 175.745 83.4298C175.72 83.157 175.693 82.8842 175.668 82.6102C175.79 82.4773 175.698 82.4424 175.584 82.4166C175.581 82.3129 175.579 82.208 175.575 82.1042C175.566 82.0412 175.557 81.9782 175.548 81.9142C175.519 81.7451 175.487 81.5761 175.458 81.4082C175.472 81.3172 175.486 81.2263 175.5 81.1353C175.453 81.0514 175.378 80.9721 175.362 80.8823C175.26 80.2865 175.171 79.6873 175.078 79.0904C175.196 78.9819 175.133 78.9318 175.02 78.8956C175.002 78.8245 174.982 78.7534 174.964 78.6823C174.961 78.6554 174.961 78.6274 174.961 78.6006C174.961 78.5611 174.961 78.5213 174.961 78.4817C174.942 78.4538 174.922 78.4269 174.903 78.3989C174.89 78.3255 174.878 78.252 174.865 78.1786C174.864 78.1518 174.864 78.1261 174.864 78.0993C174.842 77.9908 174.82 77.8835 174.798 77.7752C174.786 77.7134 174.776 77.6504 174.764 77.5886C174.764 77.5548 174.764 77.5209 174.764 77.4884C174.744 77.3357 174.837 77.1316 174.587 77.0849C174.477 76.2548 174.283 75.448 174.02 74.6552C173.953 74.4547 173.979 74.2215 173.922 74.0163C173.66 73.0683 173.382 72.1252 173.11 71.1796C172.931 70.5571 172.762 69.9321 172.57 69.3142C172.479 69.0181 172.322 68.7429 172.236 68.4456C172.159 68.1809 172.169 67.886 172.081 67.6271C171.912 67.1386 171.719 66.6606 171.589 66.1557C171.49 65.7732 171.325 65.4293 171.039 65.1192C170.808 64.8685 170.718 64.4779 170.574 64.1456C170.361 63.6537 170.204 63.1255 169.929 62.6743C169.634 62.1928 169.518 61.6517 169.309 61.1446C168.785 59.8761 168.445 58.5389 167.99 57.2446C167.776 56.6361 167.686 55.9879 167.367 55.4084C167.225 55.1507 167.272 54.7928 167.188 54.4932C166.99 53.7877 166.764 53.0893 166.556 52.3875C166.529 52.2942 166.54 52.1893 166.529 52.0902C166.465 51.5457 166.32 51.0245 166.103 50.5219C166.027 50.3459 165.967 50.1501 165.956 49.9601C165.924 49.4272 165.859 48.9201 165.602 48.4292C165.465 48.168 165.516 47.8077 165.459 47.4977C165.366 47.0068 165.285 46.5101 165.142 46.0333C164.906 45.2381 164.771 44.4254 164.633 43.6105C164.54 43.066 164.384 42.5309 164.333 41.9829C164.266 41.2227 164.122 40.4719 164.146 39.6977C164.17 38.9317 164.088 38.1622 164.065 37.3939C164.055 37.1106 164.08 36.8249 164.089 36.5415C164.214 36.5124 164.343 36.4984 164.461 36.4518C164.903 36.2805 165.358 36.1988 165.832 36.2396C165.836 37.1082 165.83 37.9768 165.849 38.8454C165.858 39.2896 165.902 39.735 165.945 40.1781C166.003 40.7902 166.057 41.4034 166.144 42.012C166.224 42.5752 166.296 43.1476 166.464 43.6839C166.536 43.9171 166.568 44.1585 166.645 44.387C166.676 44.4534 166.708 44.5199 166.738 44.5864C166.752 44.6866 166.769 44.7869 166.784 44.8872C166.743 44.9816 166.731 45.0632 166.867 45.0772C166.906 45.2486 166.945 45.4199 166.986 45.5914C166.995 45.6602 167.005 45.7301 167.014 45.7989C167.18 46.5195 167.342 47.2423 167.515 47.9617C167.804 49.1648 168.091 50.3682 168.395 51.5678C168.714 52.8317 169.019 54.1013 169.386 55.3513C169.79 56.7223 170.255 58.0747 170.699 59.433C170.718 59.4914 170.78 59.5357 170.821 59.5858C170.837 59.6755 170.854 59.7665 170.87 59.8563C170.888 59.8551 170.907 59.854 170.925 59.8529C170.93 59.7619 170.934 59.671 170.94 59.5788C171.004 59.4482 171.065 59.3176 171.131 59.1883C171.282 58.8875 171.485 58.6379 171.79 58.484C172.466 58.1424 172.805 57.6247 172.737 56.8098C172.687 56.2338 172.711 55.6426 172.784 55.069C172.847 54.5712 172.887 54.0524 173.204 53.6129C173.491 53.2141 173.824 52.9401 174.327 52.9436C174.636 52.9459 174.945 52.9459 175.252 52.9483C175.25 53.0054 175.249 53.0625 175.247 53.1196C175.04 53.1523 174.832 53.2141 174.626 53.2129C173.801 53.2095 173.418 53.8391 173.396 54.6412C173.376 55.3897 173.347 56.1394 173.474 56.8879C173.62 57.7519 173.303 58.4491 172.638 58.9889C172.499 59.1019 172.373 59.2338 172.232 59.3421C171.984 59.5322 171.883 59.7724 171.956 60.086C171.978 60.1105 172.001 60.135 172.023 60.1594C172.081 60.1419 172.156 60.1408 172.199 60.1035C172.682 59.6907 173.197 59.32 173.583 58.7907C173.88 58.3838 174.256 58.0375 174.593 57.6586C174.701 57.5361 174.79 57.3962 174.888 57.2645C174.916 57.2365 174.941 57.2086 174.969 57.1806C175.109 57.0068 175.249 56.8342 175.387 56.6605C175.416 56.6466 175.439 56.6243 175.453 56.5929C176.296 55.5657 177.119 54.5235 177.844 53.4018C178.148 52.9343 178.531 52.5204 178.863 52.0727C179.247 51.5574 179.622 51.0351 179.989 50.508C180.382 49.9461 180.764 49.3759 181.147 48.807C181.457 48.343 181.762 47.8754 182.068 47.4091C182.289 47.4254 182.336 47.2912 182.319 47.1024C182.683 46.551 183.049 46.0018 183.407 45.4469C183.61 45.1331 183.801 44.8114 183.997 44.4931L184.183 44.289C184.295 44.0898 184.407 43.8904 184.516 43.6898C184.603 43.5323 184.685 43.3727 184.8 43.1569C184.612 43.1197 184.476 43.0719 184.338 43.0695C183.753 43.0626 183.167 43.0591 182.581 43.073C181.71 43.0951 180.839 43.1488 179.968 43.1616C178.828 43.178 177.693 43.0894 176.579 42.8142C176.407 42.7722 176.224 42.7758 176.045 42.7583L175.822 42.588C175.565 42.4971 175.308 42.4061 175.052 42.3163C175.141 41.9642 174.972 41.7053 174.758 41.4618C174.381 41.0303 174.069 40.4882 173.61 40.1921C173.076 39.8481 172.944 39.2628 172.56 38.8478C172.494 38.7754 172.447 38.6856 172.39 38.6041C172.237 38.3872 172.042 38.2555 171.77 38.2706C171.443 37.6154 171.345 36.9019 171.25 36.1848C171.147 35.42 171.179 34.6551 171.247 33.895C171.295 33.3738 171.455 32.8724 171.612 32.3734C171.946 31.3102 172.49 30.3716 173.181 29.5182C173.223 29.4668 173.264 29.4121 173.316 29.3736C173.669 29.1124 174.024 28.8547 174.377 28.5948C174.409 28.5737 174.439 28.5527 174.471 28.5318C175.264 28.0654 176.113 27.7424 177.002 27.5442C177.392 27.4568 177.799 27.4102 178.199 27.4102C178.957 27.4113 179.716 27.4545 180.473 27.4942C180.665 27.5035 180.853 27.5617 181.042 27.5979C181.11 27.6049 181.178 27.6107 181.246 27.6177C182.11 27.8708 182.978 28.1121 183.839 28.3802C184.547 28.6005 185.243 28.8664 185.951 29.0867C186.977 29.4074 188.007 29.7198 189.043 30.009C189.712 30.1956 190.386 30.3809 191.07 30.4789C191.947 30.6037 192.826 30.7948 193.722 30.62C193.764 30.6118 193.812 30.6374 193.912 30.6608C193.84 30.7505 193.795 30.8601 193.736 30.8683C193.37 30.923 193.001 30.9615 192.631 30.9919C192.454 31.007 192.271 30.9836 192.093 30.9966C191.39 31.0466 190.7 30.9487 190.006 30.8507C189.735 30.8123 189.458 30.81 189.183 30.7913C189.135 30.5767 189.036 30.557 188.888 30.7074C188.724 30.6968 188.558 30.6852 188.393 30.6747C188.366 30.6525 188.339 30.6316 188.313 30.6094C187.915 30.5313 187.517 30.4544 187.118 30.3763C187.088 30.3529 187.056 30.3296 187.026 30.3063C186.575 30.2084 186.124 30.108 185.672 30.0137C185.437 29.9647 185.201 29.9251 184.965 29.8808C184.791 29.6114 184.51 29.6395 184.248 29.6161C184.098 29.6009 183.95 29.5858 183.8 29.5694C183.535 29.5064 183.269 29.4435 183.004 29.3794C182.981 29.257 182.953 29.1485 182.812 29.2873C182.778 29.2838 182.744 29.2803 182.709 29.2769C182.684 29.0716 182.535 29.1007 182.398 29.1043C182.047 29.0517 181.698 28.9934 181.346 28.948C180.713 28.8664 180.081 28.7684 179.444 28.7241C179.162 28.7043 178.872 28.7999 178.586 28.843C178.487 28.6846 178.438 28.8058 178.379 28.8804C178.13 28.8338 177.904 28.8011 177.656 28.9608C177.485 29.0704 177.233 29.0495 177.019 29.0867C176.9 28.9527 176.856 29.032 176.827 29.1556C175.796 29.4086 174.983 30.0206 174.297 30.817C173.617 31.6074 173.223 32.5635 173.049 33.586C172.942 34.2145 172.904 34.858 172.965 35.5202C173.036 36.2933 173.24 37.0102 173.472 37.732C173.893 39.0354 174.592 40.0917 175.9 40.6002C176.185 40.7108 176.481 40.7902 176.771 40.887C176.921 40.937 177.068 40.9965 177.217 41.0514H177.415C178.565 41.1667 179.716 41.1982 180.871 41.1656C182.059 41.1317 183.248 41.126 184.436 41.1528C185.103 41.1679 185.735 41.3242 186.232 41.8652C186.691 42.3642 186.713 42.9366 186.604 43.5453C186.506 44.0898 186.14 44.5095 185.919 44.9967C185.895 45.0282 185.869 45.0609 185.845 45.0924L185.333 45.9016C185.308 45.9329 185.282 45.9644 185.257 45.9971L185.253 45.9947Z" fill="#CC005F"/>
<path d="M21.5216 44.9865C21.5136 44.8197 21.5 44.653 21.5 44.4851C21.5 36.5231 21.5 28.561 21.5 20.5979V20.1035C21.8534 20.0021 25.687 19.9718 26.3688 20.0639V45.0692H21.6182C21.5863 45.0412 21.5545 45.0133 21.5227 44.9853L21.5216 44.9865Z" fill="#CC005F"/>
<path d="M85.0427 20.1416C85.0495 20.3083 85.062 20.4762 85.062 20.6429C85.062 28.5887 85.062 36.5342 85.062 44.4799C85.062 44.6618 85.062 44.8437 85.062 45.0594H80.1875V20.1113C80.5353 20.0005 83.7303 19.9573 84.9574 20.0483C84.9859 20.0798 85.0142 20.1101 85.0427 20.1416Z" fill="#CC005F"/>
<path d="M178.329 18.4326C178.054 18.8033 177.781 19.1742 177.507 19.5437C177.409 19.609 177.312 19.6743 177.214 19.7384C176.898 19.8842 176.591 20.0661 176.261 20.1675C175.741 20.3283 175.277 20.1791 174.906 19.7582C174.957 19.7116 175.007 19.6649 175.058 19.6183C175.715 20.087 176.423 19.8667 176.953 19.4248C177.658 18.836 178.101 18.0525 178.297 17.1303C178.32 17.0218 178.382 16.9216 178.425 16.8167C178.617 16.7783 178.578 16.6267 178.577 16.4937C178.577 15.9037 178.611 15.3115 178.566 14.725C178.542 14.4102 178.415 14.0885 178.273 13.8017C178.118 13.4903 177.866 13.2688 177.518 13.1487C176.913 12.9401 176.298 12.7733 175.667 12.7033C175.409 12.6741 175.136 12.7931 174.869 12.8444C174.795 12.9249 174.72 13.0053 174.647 13.0857C174.619 13.1208 174.591 13.1568 174.561 13.1918C174.506 13.2629 174.452 13.3341 174.396 13.4052C174.324 13.5031 174.251 13.6023 174.18 13.7001C174.129 13.8017 174.077 13.9031 174.027 14.0045C174.01 14.0371 173.991 14.0698 173.974 14.1025C173.946 14.1351 173.921 14.1677 173.893 14.2003C173.785 14.5257 173.677 14.8509 173.568 15.1763C173.432 15.1948 173.354 15.2555 173.405 15.4106C173.394 15.4397 173.387 15.47 173.382 15.5015C173.362 15.5365 173.342 15.5726 173.323 15.6076C173.213 16.011 173.103 16.4133 172.994 16.8167C172.818 16.8983 172.769 17.037 172.813 17.2212C172.762 17.3974 172.714 17.5757 172.659 17.7505C172.422 18.5014 172.193 19.2546 171.938 19.9984C171.858 20.2305 171.708 20.438 171.582 20.6724C171.864 21.0734 172.258 21.3392 172.642 21.6051C173.779 22.3921 175.026 22.9389 176.347 23.3132C177.343 23.5953 178.331 23.9228 179.341 24.1246C180.16 24.289 180.983 24.465 181.827 24.5035C182.435 24.5315 183.038 24.6889 183.647 24.7413C184.391 24.8055 185.14 24.8031 185.885 24.8602C186.412 24.9011 186.937 25.0014 187.463 25.062C188.041 25.1285 188.624 25.1622 189.201 25.2415C190.108 25.3675 191.013 25.5214 191.919 25.6624C191.985 25.6764 192.052 25.6915 192.117 25.7055C192.86 25.9341 193.62 26.1207 194.345 26.3992C195.435 26.8191 196.516 27.2679 197.571 27.7715C199.127 28.5166 200.657 29.3223 202.198 30.0987C203.625 30.8169 205.048 31.5445 206.486 32.2382C206.979 32.476 207.512 32.6323 208.03 32.8083C208.16 32.8514 208.311 32.8176 208.449 32.8386C208.567 32.8561 208.679 32.9004 208.9 32.9634C208.019 33.1231 207.287 32.9482 206.556 32.7406C206.245 32.652 205.928 32.5821 205.616 32.5005C205.507 32.4725 205.397 32.4398 205.294 32.3967C204.582 32.0959 203.884 31.752 203.156 31.4967C202.056 31.1107 201.007 30.5977 199.925 30.1711C198.85 29.7478 197.793 29.2756 196.718 28.85C195.9 28.526 195.076 28.2077 194.237 27.9488C193.402 27.6911 192.549 27.4825 191.694 27.3052C191.079 27.1781 190.446 27.1396 189.822 27.0592C189.581 27.0289 189.341 26.9927 189.101 26.9589C188.951 26.9589 188.802 26.9589 188.652 26.9589C188.449 26.9344 188.247 26.8983 188.044 26.8866C187.382 26.8504 186.721 26.8272 186.06 26.7888C185.641 26.7642 185.223 26.7118 184.804 26.6884C184.043 26.6465 183.28 26.6348 182.522 26.5766C181.993 26.5357 181.467 26.4541 180.942 26.3655C180.019 26.2069 179.094 26.0366 178.172 25.8559C177.573 25.7382 176.977 25.5983 176.383 25.4537C176.222 25.4141 176.079 25.3057 175.918 25.2543C175.549 25.1354 175.169 25.0515 174.807 24.9163C174.481 24.7939 174.166 24.6352 173.86 24.4685C173.199 24.1106 172.549 23.7352 171.893 23.3714C171.132 22.9494 170.534 22.3279 169.938 21.7029C169.892 21.6553 169.85 21.5992 169.795 21.5654C169.295 21.2634 169.039 20.7248 168.661 20.3074C168.435 20.0567 168.253 19.6836 168.217 19.3466C168.159 18.8139 167.868 18.386 167.747 17.887C167.592 17.2539 167.385 16.6348 167.201 16.0098C167.325 15.9352 167.314 15.8676 167.191 15.8058C167.165 15.6706 167.14 15.5365 167.113 15.4013C167.257 15.2566 167.149 15.2251 167.027 15.2019C167.021 14.8661 167.014 14.5303 167.008 14.1934C167.489 14.2995 167.977 14.3881 168.411 14.6539C168.461 14.6854 168.533 14.6807 168.596 14.6924C168.696 15.0806 168.802 15.4688 168.897 15.8594C169.128 16.819 169.482 17.7273 169.961 18.5854C170.045 18.7358 170.112 18.8943 170.208 19.0901C170.418 18.92 170.585 18.8021 170.67 18.5608C170.858 18.0304 171.085 17.5151 171.287 16.9903C171.386 16.735 171.465 16.4704 171.551 16.2104C171.729 16.1871 171.723 16.0519 171.723 15.9189C172.177 14.5793 172.765 13.3166 173.733 12.2755C174.347 11.6178 175.129 11.394 175.943 11.6237C176.669 11.8289 177.427 11.9875 178.098 12.3828C178.81 12.8025 179.181 13.4391 179.268 14.2668C179.302 14.5932 179.394 14.9255 179.366 15.2462C179.308 15.9328 179.207 16.6184 178.953 17.2655C178.838 17.5547 178.706 17.8356 178.58 18.1202C178.495 18.2216 178.411 18.3218 178.326 18.4233L178.329 18.4326Z" fill="#CC005F"/>
<path d="M77.5017 71.7552C77.4949 71.058 77.4881 70.3609 77.4802 69.6637C77.4779 69.4818 77.4676 69.2987 77.4609 69.1168C77.4393 69.0796 77.4165 69.0422 77.3949 69.0038C77.3563 69.0446 77.3177 69.0842 77.2791 69.1249C76.7961 69.9119 76.1973 70.58 75.4292 71.0873C74.551 71.6667 73.5851 71.9605 72.5568 72.0375C72.0217 72.0771 71.4706 72.1261 70.948 72.0387C70.265 71.9255 69.5321 71.8999 68.9686 71.3787C68.922 71.3355 68.8573 71.2983 68.796 71.2865C68.4312 71.219 68.205 70.9345 67.9176 70.7409C67.4188 70.404 67.1098 69.8991 66.6985 69.4875C66.5564 69.3454 66.4996 69.1145 66.3916 68.9326C66.311 68.795 66.2098 68.6703 66.1178 68.5408C66.0905 68.5024 66.0633 68.4651 66.036 68.4266C66.0224 68.3298 66.036 68.2156 65.9895 68.1387C65.6486 67.558 65.519 66.9016 65.3769 66.258C65.302 65.9176 65.3532 65.5467 65.3509 65.19C65.3475 64.6048 65.3327 64.0183 65.352 63.433C65.3622 63.1113 65.3985 62.7859 65.5895 62.5014C65.6599 62.3965 65.6804 62.2508 65.7042 62.1201C65.8316 61.4382 66.211 60.8797 66.5325 60.2886C66.828 59.7453 67.2574 59.3138 67.6813 58.8988C68.0369 58.5514 68.5255 58.3485 68.9572 58.085C69.1516 57.9661 69.3482 57.8541 69.5459 57.7433C69.6004 57.713 69.6606 57.6851 69.7208 57.6758C70.3139 57.5813 70.9059 57.4624 71.5025 57.4075C72.333 57.3319 73.1613 57.4205 73.943 57.7201C74.5271 57.9439 75.102 58.2179 75.6395 58.542C76.3393 58.9628 76.8416 59.6112 77.2972 60.292C77.3381 60.3841 77.3791 60.4762 77.42 60.5683C77.4426 60.5602 77.4653 60.5532 77.4892 60.5451C77.4835 60.4541 77.4768 60.3632 77.471 60.2723C77.4733 57.9112 77.4768 55.5504 77.4802 53.1893C77.4802 53.0063 77.4938 52.822 77.5006 52.639C77.5347 52.6098 77.5687 52.5807 77.6028 52.5527C78.1368 52.5527 78.6709 52.5527 79.2322 52.5527V71.8428C78.6947 71.8428 78.1483 71.8428 77.6017 71.8428C77.5676 71.8135 77.5336 71.7844 77.4995 71.7564L77.5017 71.7552ZM72.2614 70.4611C73.2499 70.4739 74.1703 70.207 75.0145 69.6963C76.1349 69.019 76.8313 67.98 77.1927 66.7278C77.6903 65.0012 77.579 63.2931 76.7609 61.6818C75.936 60.0577 74.5589 59.2136 72.8216 59.0258C70.7116 58.7973 68.7459 59.7301 67.7631 61.7658C67.2563 62.8162 67.1222 63.9331 67.1473 65.0851C67.1518 65.2763 67.0939 65.4745 67.1268 65.6564C67.1859 65.977 67.2972 66.2859 67.3813 66.602C68.021 69.0003 69.8492 70.4471 72.2614 70.4611ZM77.3869 68.879C77.4028 68.9011 77.4188 68.9245 77.4347 68.9466C77.4517 68.9221 77.4823 68.8987 77.4835 68.8743C77.4835 68.8475 77.4563 68.8207 77.4404 68.7938C77.4233 68.8219 77.4051 68.8487 77.3869 68.879Z" fill="#030303"/>
<path d="M95.8175 60.075V57.6301H97.572C97.5833 57.7059 97.6072 57.799 97.6072 57.8911C97.6083 62.4604 97.6083 67.0284 97.6072 71.5977C97.6072 71.6477 97.5957 71.6967 97.5901 71.7469C97.5594 71.7761 97.5288 71.8052 97.498 71.8332C96.9629 71.8332 96.4288 71.8332 95.846 71.8332C95.8346 70.9926 95.8244 70.1635 95.8131 69.3345C95.8153 69.267 95.8187 69.2005 95.821 69.1329C95.821 69.042 95.821 68.951 95.821 68.74C95.7221 68.9382 95.6756 69.0326 95.6278 69.127C95.5926 69.1936 95.5573 69.2588 95.5221 69.3253C94.8825 70.3034 93.9973 70.989 93.0021 71.5359C92.785 71.6548 92.5282 71.6956 92.2919 71.7772C91.3829 72.0897 90.4501 72.106 89.5092 72.0139C89.0354 71.9672 88.5117 72.0139 88.1025 71.8156C87.6685 71.6046 87.1584 71.5009 86.805 71.0997C86.6607 70.9353 86.4278 70.8538 86.2346 70.7349C86.1972 70.7058 86.1597 70.6766 86.1222 70.6485C85.8801 70.3828 85.6505 70.1052 85.3949 69.8534C84.8416 69.3101 84.5008 68.6479 84.2224 67.9215C84.0429 67.4528 83.9178 66.9876 83.8588 66.4944C83.8429 66.3662 83.7861 66.2426 83.7475 66.1166C83.7247 66.0398 83.6758 65.9593 83.6827 65.8859C83.7565 65.142 83.6622 64.3993 83.6827 63.6577C83.6985 63.0457 83.8747 62.4569 84.0689 61.8797C84.2928 61.2175 84.5939 60.5984 84.9836 60.0144C85.545 59.1748 86.3153 58.6128 87.1675 58.1488C88.4059 57.4738 89.7319 57.25 91.1147 57.4551C91.8135 57.5589 92.5089 57.6744 93.1633 58.002C94.2064 58.5242 95.02 59.2856 95.6347 60.2848C95.6688 60.3815 95.7028 60.4772 95.738 60.574C95.7529 60.5996 95.7687 60.6264 95.7835 60.652C95.7994 60.6276 95.8164 60.6031 95.8324 60.5774C95.8278 60.4095 95.8221 60.2405 95.8175 60.0726V60.075ZM85.5427 64.9298C85.5427 65.1735 85.4528 65.6188 85.5631 66.0048C85.7563 66.6798 85.9211 67.37 86.2983 67.9902C87.0027 69.1504 87.9549 69.9408 89.2501 70.2802C90.5421 70.6182 91.7965 70.4993 92.9952 69.9024C94.4076 69.1993 95.2166 67.9857 95.6221 66.4723C95.9483 65.254 95.9062 64.0203 95.571 62.8124C94.9609 60.6112 93.3281 59.1912 91.0545 59.0057C89.0354 58.8402 86.9493 59.7264 85.9801 62.0721C85.6268 62.9268 85.454 63.8221 85.5427 64.9298Z" fill="#030303"/>
<path d="M19.9199 72.0457C19.5484 72.0457 19.1769 72.0514 18.8053 72.0421C18.7133 72.0398 18.6213 71.9931 18.5315 71.9605C18.3951 71.9104 18.2656 71.8276 18.127 71.8043C17.3407 71.6701 16.6681 71.3122 16.0341 70.8191C15.3636 70.2967 14.7569 69.7254 14.3024 68.999C13.8707 68.3077 13.5946 67.558 13.39 66.7559C13.2049 66.026 13.2923 65.3055 13.2309 64.5838C13.2049 64.2748 13.1707 63.96 13.1969 63.6533C13.2265 63.3094 13.2764 62.9539 13.3934 62.632C13.6343 61.9663 13.8808 61.2948 14.2081 60.6722C14.6592 59.8141 15.358 59.1728 16.1295 58.6085C16.5817 58.2773 17.0555 57.9533 17.5725 57.8017C18.2326 57.6093 18.9087 57.431 19.6098 57.4007C21.5186 57.319 23.2673 57.783 24.7547 59.0434C25.7227 59.8641 26.3669 60.9194 26.7237 62.1738C26.9828 63.0868 27.135 64.0102 27.0964 64.9488C27.0134 66.9785 26.4396 68.8195 24.9308 70.2431C24.0262 71.0965 22.9765 71.6585 21.7549 71.8544C21.1482 71.9524 20.5381 72.0362 19.9302 72.1272L19.9211 72.0468L19.9199 72.0457ZM20.045 70.4868C20.3938 70.446 20.7824 70.4226 21.1618 70.3516C22.4719 70.1067 23.5275 69.4457 24.299 68.3159C24.9216 67.4029 25.1705 66.3711 25.2512 65.2844C25.292 64.7377 25.2182 64.1966 25.1625 63.6511C25.0966 63.0029 24.9467 62.3907 24.6819 61.8194C24.1048 60.5718 23.1775 59.7161 21.8687 59.2999C20.7131 58.9314 19.57 58.8755 18.4144 59.2777C16.2431 60.0332 15.3376 61.8007 15.058 63.6942C14.9739 64.2667 15.0387 64.8636 15.0558 65.4489C15.0762 66.1578 15.2307 66.8352 15.5261 67.4834C16.4169 69.4362 17.9475 70.3608 20.045 70.4868Z" fill="#040404"/>
<path d="M133.18 63.9018C133.18 64.437 133.18 64.971 133.178 65.5061C133.154 65.575 133.13 65.6437 133.106 65.7113C133.063 67.0871 132.576 68.2973 131.788 69.3886C131.225 70.1674 130.508 70.762 129.674 71.2203C128.571 71.8265 127.392 72.0784 126.151 72.0504C125.619 72.0387 125.072 72.0538 124.562 71.9268C123.643 71.6971 122.784 71.331 121.998 70.7294C121.353 70.2351 120.903 69.6207 120.445 68.977C119.973 68.3148 119.76 67.5593 119.544 66.7874C119.344 66.0693 119.361 65.3464 119.345 64.6189C119.339 64.3681 119.357 64.1163 119.362 63.8657C119.37 63.4891 119.343 63.1207 119.528 62.7557C119.657 62.5016 119.628 62.1669 119.732 61.8941C119.875 61.5222 120.075 61.1724 120.26 60.8181C120.819 59.7454 121.667 58.9759 122.655 58.3265C123.318 57.8903 124.045 57.6828 124.795 57.5324C125.549 57.3809 126.303 57.3541 127.078 57.4403C128.137 57.5569 129.121 57.8775 130.024 58.4232C131.314 59.2043 132.209 60.3318 132.716 61.8055C132.929 62.4293 133.089 63.0413 133.107 63.6966C133.131 63.7642 133.156 63.8342 133.18 63.9018ZM126.055 70.5055C126.576 70.439 127 70.4181 127.407 70.326C128.702 70.0333 129.757 69.3559 130.477 68.1924C130.889 67.5278 131.104 66.8026 131.257 66.0179C131.468 64.936 131.402 63.8855 131.154 62.8595C130.768 61.2529 129.863 60.0695 128.303 59.4153C127.044 58.8872 125.799 58.8663 124.541 59.251C123.555 59.5529 122.744 60.1675 122.149 61.0465C121.609 61.8429 121.295 62.7196 121.199 63.6896C121.096 64.7413 121.128 65.7708 121.39 66.8014C121.575 67.5301 121.952 68.1294 122.381 68.7124C122.867 69.3723 123.532 69.8211 124.257 70.1103C124.846 70.3459 125.51 70.3924 126.055 70.5055Z" fill="#040404"/>
<path d="M31.9081 69.0051C31.7458 68.4373 31.5605 67.8753 31.4309 67.2994C31.3741 67.0475 31.4332 66.7689 31.4332 66.5018C31.4288 63.6185 31.423 60.7353 31.4185 57.852C31.4185 57.7878 31.4321 57.7226 31.4423 57.6281H33.1785C33.1785 57.8299 33.1785 58.0106 33.1785 58.1913C33.1819 60.874 33.1672 63.5556 33.1978 66.2384C33.2114 67.451 33.5966 68.5434 34.4557 69.4248C35.0635 70.0485 35.81 70.3494 36.6452 70.452C37.6348 70.5733 38.5972 70.4426 39.5004 70.0172C40.2174 69.679 40.7685 69.1322 41.1117 68.3849C41.3503 67.8672 41.473 67.3156 41.6264 66.7677C41.8797 65.8583 41.7843 64.9465 41.7935 64.036C41.8138 62.075 41.8002 60.1128 41.8002 58.1516V57.627H43.5512C43.5602 57.7319 43.5761 57.8275 43.5761 57.923C43.5772 62.4492 43.5772 66.9764 43.5761 71.5024C43.5761 71.5853 43.5648 71.6692 43.5579 71.752C43.5262 71.7812 43.4954 71.8103 43.4636 71.8394H41.8128C41.8036 71.1993 41.7945 70.5721 41.7854 69.9459V69.5064C41.7638 69.5064 41.7434 69.5052 41.7218 69.5042C41.6968 69.5613 41.6719 69.6184 41.6457 69.6766C41.3195 70.304 40.8321 70.8087 40.2822 71.1936C39.6516 71.6353 38.9233 71.921 38.1314 71.9595C37.5996 71.9851 37.0689 72.0306 36.5372 72.0668C35.4601 72.1391 34.5738 71.6587 33.6886 71.1026C33.0069 70.6747 32.5592 70.0766 32.1764 69.3934C32.124 69.3012 32.0423 69.2255 31.9741 69.1426C31.9513 69.0971 31.9286 69.0517 31.9059 69.0062L31.9081 69.0051Z" fill="#020202"/>
<path d="M50.7872 59.7288C51.0973 59.2077 51.5019 58.7762 51.9587 58.3868C52.5461 57.8866 53.2414 57.6453 53.9652 57.488C55.2787 57.2035 56.5569 57.3376 57.8125 57.8377C58.9884 58.3075 60.1735 59.4116 60.6314 60.9437C60.8031 61.5161 60.8985 62.0933 60.9383 62.6961C61.1371 65.7227 60.936 68.7518 61.0417 71.8158H59.2589C59.2589 71.642 59.2589 71.4637 59.2589 71.2853C59.2589 68.8707 59.2657 66.4573 59.2544 64.0427C59.2521 63.4947 59.2419 62.9351 59.1374 62.401C59.0351 61.8787 58.8668 61.3494 58.6238 60.8795C58.2181 60.0984 57.5318 59.6146 56.7422 59.2776C56.4171 59.1388 56.107 58.964 55.7378 59.063C55.6923 58.9756 55.6684 58.8323 55.5343 58.9838C55.1753 58.985 54.8174 58.986 54.4583 58.9884C54.3231 58.8299 54.3129 59.0118 54.2561 59.0665C53.2062 59.0118 52.4325 59.5784 51.7757 60.313C50.9349 61.2526 50.6656 62.4302 50.6405 63.6719C50.6224 64.6093 50.6327 65.5479 50.6327 66.4853C50.6327 68.093 50.6327 69.7008 50.6327 71.3086V71.8251H48.8828V57.6267H50.6463V59.6752C50.6405 59.7463 50.635 59.8162 50.6292 59.8874C50.6463 59.9118 50.6644 59.9364 50.6815 59.9608C50.6985 59.9352 50.7145 59.9083 50.7315 59.8827C50.7497 59.8313 50.7679 59.7801 50.7872 59.7288Z" fill="#020202"/>
<path d="M139.676 59.5865C140.255 58.7715 140.982 58.135 141.897 57.763C142.338 57.5835 142.81 57.4284 143.278 57.3888C143.869 57.3386 144.467 57.3585 145.071 57.4378C145.809 57.5345 146.491 57.7327 147.132 58.0872C148.204 58.6806 148.949 59.5609 149.381 60.7524C149.745 61.754 149.825 62.7859 149.835 63.827C149.858 66.357 149.842 68.8869 149.842 71.4182C149.842 71.5476 149.842 71.6771 149.842 71.831H148.081V71.3051C148.081 68.993 148.076 66.68 148.083 64.368C148.087 63.3501 147.963 62.3766 147.633 61.3961C147.339 60.5193 146.811 59.9305 146.087 59.4886C145.379 59.0561 144.583 58.8939 143.761 58.9453C143.266 58.9768 142.76 59.0246 142.284 59.1633C141.57 59.3721 140.983 59.8174 140.505 60.4073C139.843 61.227 139.508 62.1924 139.492 63.2312C139.447 65.8953 139.462 68.5594 139.453 71.2235C139.453 71.4066 139.453 71.5907 139.453 71.8344C138.893 71.8694 138.345 71.859 137.799 71.8403C137.766 71.8111 137.732 71.782 137.7 71.7529C137.692 71.6198 137.68 71.4858 137.68 71.3529C137.68 66.9353 137.68 62.5176 137.68 58.1V57.6254H139.439C139.451 58.2866 139.462 58.9325 139.472 59.5784V59.8593C139.497 59.8617 139.521 59.864 139.544 59.8664C139.588 59.7731 139.631 59.6798 139.676 59.5865Z" fill="#020202"/>
<path d="M0.325144 71.7473C0.318321 71.5969 0.304688 71.4465 0.304688 71.2972C0.304688 65.5667 0.304688 59.8363 0.304688 54.1046C0.304688 53.9566 0.304688 53.8086 0.304688 53.6348H9.89221V55.098C9.732 55.1039 9.56043 55.1167 9.38999 55.1167C7.16866 55.1178 4.94846 55.1167 2.72713 55.119C2.54874 55.119 2.37036 55.1365 2.19083 55.1458C2.16128 55.1796 2.13061 55.2147 2.10107 55.2484C2.09425 56.1474 2.08061 57.045 2.08175 57.944C2.08175 59.2253 2.09425 60.5067 2.10107 61.7891C2.13174 61.8277 2.16128 61.8661 2.19197 61.9047C2.36922 61.9163 2.54761 61.9372 2.72485 61.9372C4.51783 61.9395 6.31081 61.9384 8.10264 61.9384H8.65599V63.4494H8.10264C6.30967 63.4494 4.51669 63.4494 2.72485 63.4506C2.54648 63.4506 2.36922 63.4716 2.19197 63.4821C2.16128 63.5206 2.13174 63.5602 2.10107 63.5986C2.09425 63.8155 2.08176 64.0324 2.08061 64.2492C2.07948 66.5729 2.08061 68.8965 2.08061 71.2215C2.08061 71.4044 2.08061 71.5875 2.08061 71.8358H0.428532L0.326275 71.7496L0.325144 71.7473Z" fill="black"/>
<path d="M105.438 69.4421C105.733 70.0368 106.261 70.2117 106.851 70.242C107.389 70.27 107.927 70.2618 108.466 70.2677C108.626 70.27 108.786 70.2677 108.977 70.2677V71.7484C108.942 71.7763 108.907 71.8055 108.87 71.8334C107.91 71.8066 106.947 71.8171 105.991 71.7344C105.55 71.6958 105.117 71.4919 104.696 71.324C104.547 71.2645 104.441 71.0895 104.317 70.9649C103.688 70.334 103.391 69.5739 103.394 68.6645C103.4 65.5667 103.388 62.4688 103.382 59.371C103.382 59.3384 103.372 59.3046 103.366 59.2719C103.339 59.2381 103.312 59.2032 103.284 59.1693H101.469V57.6152C102.068 57.5977 102.675 57.5802 103.284 57.5638C103.312 57.53 103.339 57.4951 103.367 57.4613C103.373 56.539 103.379 55.618 103.387 54.6957C103.388 54.5115 103.396 54.3272 103.4 54.1431C103.428 54.1105 103.455 54.0766 103.482 54.0439C104.033 54.0439 104.584 54.0439 105.183 54.0439V57.5883H108.968V59.1379H105.21C105.199 59.3209 105.183 59.4654 105.183 59.6101C105.182 62.3394 105.183 65.0688 105.182 67.7982C105.182 68.3171 105.209 68.8324 105.36 69.3314C105.386 69.3675 105.412 69.4047 105.438 69.4421Z" fill="black"/>
<path d="M113.156 57.6162H114.87V71.8159H113.156V57.6162Z" fill="black"/>
<path d="M165.831 36.2349C165.357 36.1942 164.904 36.2757 164.46 36.4471C164.342 36.4926 164.213 36.5078 164.088 36.5369C164.111 36.0717 164.152 35.6054 164.154 35.1402C164.165 33.7434 164.168 32.3467 164.162 30.9499C164.162 30.7575 164.106 30.5558 164.038 30.3739C163.873 29.9298 163.631 29.5077 163.521 29.0518C163.342 28.2963 163.225 27.5244 163.116 26.7538C163.042 26.2291 163.03 25.6951 162.983 25.1658C162.943 24.7087 163.101 24.3158 163.346 23.951C163.585 23.5941 163.845 23.2514 164.07 22.8853C164.467 22.2394 164.843 21.5807 165.228 20.9277C165.425 21.0781 165.347 21.2961 165.348 21.4862C165.354 21.9514 165.34 22.4166 165.538 22.8538C165.224 23.4041 164.92 23.9591 164.594 24.5012C164.417 24.7973 164.323 25.0912 164.38 25.4445C164.437 25.7849 164.454 26.1311 164.486 26.4762C164.486 26.5439 164.486 26.6115 164.486 26.6792C164.556 26.8937 164.641 27.1047 164.692 27.3239C164.905 28.2426 165.167 29.1392 165.568 29.9997C165.732 30.353 165.703 30.8018 165.763 31.2064C165.788 31.2402 165.816 31.2741 165.841 31.3078C165.846 32.8351 165.85 34.3613 165.854 35.8887C165.854 36.0041 165.839 36.1196 165.831 36.2349Z" fill="#CC005F"/>
<path d="M168.265 11.2904C168.283 11.5621 168.298 11.8337 168.316 12.1054C167.886 11.836 167.64 11.4151 167.394 10.9814C167.27 10.7599 167.076 10.5792 166.913 10.3809C166.886 10.346 166.86 10.3122 166.833 10.2772C166.821 9.89244 166.8 9.50885 166.802 9.1241C166.806 8.10276 166.837 7.08259 166.827 6.06243C166.821 5.44565 166.819 4.81839 166.706 4.21679C166.594 3.62334 166.401 3.02872 166.14 2.48658C165.75 1.6751 165.128 1.06183 164.269 0.772686C163.509 0.516187 162.743 0.281837 161.921 0.539498C161.636 0.629279 161.317 0.603629 160.984 0.633944C161.021 0.553493 161.033 0.481208 161.059 0.47538C161.543 0.356447 162.034 0.262014 162.514 0.1291C163.061 -0.022473 163.601 0.0183341 164.137 0.140756C164.947 0.326133 165.715 0.617611 166.299 1.2612C166.954 1.98173 167.328 2.85034 167.6 3.7854C167.889 4.77525 167.922 5.79892 168.04 6.80977C168.131 7.59443 168.089 8.39658 168.109 9.19056C168.112 9.34096 168.101 9.49486 168.128 9.6406C168.219 10.1151 168.266 10.5908 168.219 11.0735C168.233 11.1458 168.25 11.217 168.265 11.2904Z" fill="#CC005F"/>
<path d="M165.373 20.1359C165.569 19.3244 165.415 18.5433 165.174 17.7703C165.105 17.5523 165.04 17.3331 164.976 17.1151C164.968 17.0486 164.96 16.9821 164.954 16.9157C164.924 16.7746 164.888 16.6335 164.866 16.4913C164.854 16.4108 164.889 16.3141 164.859 16.2441C164.671 15.8 164.739 15.323 164.688 14.8637C164.624 14.2807 164.592 13.6931 164.546 13.1078C164.554 12.9714 164.561 12.8338 164.568 12.6974C164.54 12.5972 164.512 12.4957 164.483 12.3954C164.472 12.1482 164.461 11.8999 164.451 11.6527C164.429 11.4651 164.409 11.2773 164.387 11.0897C164.385 10.8495 164.381 10.6093 164.377 10.3691C164.376 10.3388 164.375 10.3085 164.375 10.2793C164.347 9.97618 164.319 9.67188 164.291 9.36874C164.413 9.19968 164.422 9.03413 164.278 8.87206C164.251 8.12589 164.203 7.38087 164.203 6.63468C164.203 6.00509 164.258 5.37666 164.288 4.74707H164.323H164.357C164.418 5.35219 164.478 5.95729 164.54 6.5624C164.649 7.61288 164.749 8.66454 164.871 9.71269C164.976 10.6023 165.134 11.486 165.22 12.3779C165.255 12.7604 165.298 13.1462 165.296 13.5369C165.293 13.7887 165.413 14.0382 165.45 14.2923C165.659 15.7276 166.029 17.1173 166.469 18.4967C166.664 19.1169 166.743 19.8014 166.455 20.4496C166.094 20.3458 165.735 20.242 165.375 20.1382L165.373 20.1359Z" fill="#CC005F"/>
<path d="M112.712 53.589C112.805 52.6983 113.179 52.2505 114.049 52.2365C114.765 52.2249 115.341 52.8719 115.317 53.6053C115.294 54.313 114.702 54.9205 114.023 54.9158C113.57 54.9134 113.244 54.664 112.926 54.3491C112.678 54.1044 112.83 53.8036 112.712 53.589Z" fill="#040404"/>
<path d="M166.919 10.3828C167.08 10.5822 167.274 10.7617 167.4 10.9833C167.644 11.4158 167.891 11.8378 168.32 12.1071C168.393 12.8266 168.466 13.5459 168.541 14.2654C168.555 14.4122 168.582 14.5591 168.604 14.7048C168.541 14.6932 168.469 14.6979 168.418 14.6664C167.985 14.3994 167.498 14.3119 167.015 14.2058C166.959 12.935 166.901 11.6642 166.844 10.3933C166.869 10.3933 166.893 10.3886 166.919 10.3828Z" fill="#CC005F"/>
<path d="M165.371 20.1416C165.731 20.2454 166.091 20.3491 166.45 20.4529C166.436 21.3717 165.967 22.1062 165.535 22.857C165.338 22.421 165.351 21.9546 165.347 21.4894C165.345 21.2993 165.422 21.0802 165.227 20.931C165.275 20.6674 165.322 20.4052 165.371 20.1416Z" fill="#CC005F"/>
<path d="M174.856 42.203C173.449 41.4825 172.508 40.3412 171.961 38.8418C171.94 38.7811 171.933 38.7136 171.922 38.6494C172.171 38.6937 172.299 38.8709 172.406 39.0878C172.65 39.5786 172.922 40.0438 173.402 40.3423C173.537 40.4262 173.641 40.565 173.752 40.6874C174.048 41.0174 174.33 41.3577 174.631 41.6819C174.771 41.8323 174.895 41.9768 174.856 42.203Z" fill="#828282"/>
<path d="M174.858 42.1978C174.898 41.9716 174.774 41.8283 174.635 41.6767C174.333 41.3525 174.05 41.0121 173.754 40.6822C173.646 40.5598 173.539 40.421 173.405 40.3371C172.924 40.0385 172.651 39.5734 172.41 39.0826C172.303 38.8657 172.173 38.6885 171.924 38.6442C171.871 38.517 171.819 38.39 171.766 38.2629C172.036 38.2477 172.232 38.3795 172.384 38.5964C172.442 38.678 172.487 38.769 172.555 38.8401C172.938 39.2551 173.071 39.8404 173.604 40.1844C174.065 40.4816 174.375 41.0226 174.753 41.454C174.968 41.6977 175.135 41.9565 175.046 42.3086C174.984 42.2714 174.922 42.2352 174.86 42.1978H174.858Z" fill="#7B7B7B"/>
<path d="M175.063 19.6182C175.012 19.6648 174.961 19.7115 174.91 19.7581C174.849 19.7453 174.755 19.7534 174.734 19.7162C174.576 19.4597 174.435 19.1938 174.289 18.9315C174.336 18.9197 174.384 18.9081 174.433 18.8965C174.642 19.1366 174.852 19.378 175.063 19.6182Z" fill="#878787"/>
<path d="M104.694 43.095C104.46 42.8548 104.694 42.7162 104.816 42.5739C104.929 42.4433 105.07 42.4351 105.17 42.6135C105.011 42.7733 104.853 42.9352 104.694 43.095Z" fill="#CC005F"/>
<path d="M179.062 76.3741C179.03 76.3741 178.998 76.3763 178.966 76.3775C178.814 76.0954 178.662 75.8145 178.508 75.5322C178.968 75.6523 179.057 75.9881 179.062 76.3741Z" fill="#7D7D7D"/>
<path d="M174.429 18.9006C174.381 18.9123 174.334 18.9239 174.286 18.9355C173.953 18.4622 173.94 18.4308 173.938 17.8652C174.101 18.2103 174.265 18.5544 174.429 18.9006Z" fill="#939393"/>
<path d="M100.148 24.5694C100.253 24.4248 100.379 24.4517 100.473 24.56C100.592 24.6976 100.682 24.8597 100.786 25.0113C100.744 25.0299 100.701 25.0474 100.659 25.0661C100.489 24.9005 100.318 24.735 100.148 24.5694Z" fill="#CC005F"/>
<path d="M95.4488 28.7957C95.3431 28.9392 95.2182 28.9111 95.1238 28.8027C95.0056 28.6652 94.9148 28.5042 94.8125 28.3526C94.8546 28.334 94.8966 28.3165 94.9398 28.2979C95.1091 28.4634 95.2794 28.6301 95.4488 28.7957Z" fill="#CC005F"/>
<path d="M105.482 33.6063C105.069 33.6087 104.972 33.5609 104.9 33.2845C104.887 33.2333 104.958 33.1599 104.99 33.0957C105.153 33.2658 105.318 33.4361 105.482 33.6063Z" fill="#CC005F"/>
<path d="M184.25 29.6152C184.512 29.6398 184.79 29.6105 184.967 29.88C184.733 29.8216 184.499 29.7621 184.264 29.7038C184.273 29.6723 184.268 29.642 184.25 29.6152Z" fill="#7B7B7B"/>
<path d="M175.236 53.1127C175.238 53.0556 175.239 52.9985 175.241 52.9414H176.152C176.023 53.0357 175.961 53.1198 175.894 53.1233C175.675 53.1349 175.454 53.1186 175.234 53.1127H175.236Z" fill="#ADADAD"/>
<path d="M94.7891 44.8047C95.0221 44.8502 95.3038 44.7697 95.438 45.0694C95.1823 45.0834 94.938 45.0671 94.7891 44.8047Z" fill="#7D7D7D"/>
<path d="M90.1235 23.6533C90.252 23.9075 90.2065 23.9891 89.8906 24.0696C89.8952 23.8877 89.9157 23.7151 90.1235 23.6533Z" fill="#CC005F"/>
<path d="M101.848 38.7617C101.957 39.0101 101.854 39.1942 101.673 39.354C101.669 39.1371 101.668 38.9215 101.848 38.7617Z" fill="#7D7D7D"/>
<path d="M178.097 79.0947C178.073 79.328 178.087 79.5774 177.825 79.6975C177.8 79.441 177.871 79.2311 178.097 79.0947Z" fill="#7D7D7D"/>
<path d="M175.787 84.2295C176.046 84.4055 175.957 84.6177 175.844 84.8323C175.644 84.6504 175.834 84.4277 175.787 84.2295Z" fill="#7D7D7D"/>
<path d="M101.828 37.9453C102.077 38.1296 102.077 38.266 101.828 38.4502C101.828 38.2823 101.828 38.1144 101.828 37.9453Z" fill="#7D7D7D"/>
<path d="M164.382 11.0869C164.404 11.2747 164.424 11.4623 164.445 11.6501C164.233 11.4274 164.224 11.3505 164.382 11.0869Z" fill="#7D7D7D"/>
<path d="M164.266 8.87207C164.411 9.03297 164.404 9.19969 164.28 9.36875C164.102 9.20786 164.111 9.0423 164.266 8.87207Z" fill="#7D7D7D"/>
<path d="M96.8203 45.2661C96.9681 45.1427 97.0998 45.1531 97.2124 45.3175C97.0669 45.4201 96.9295 45.4574 96.8203 45.2661Z" fill="#939393"/>
<path d="M172.82 17.2289C172.776 17.0447 172.825 16.9059 172.996 16.8242C172.98 16.9793 173.063 17.1822 172.82 17.2289Z" fill="#F3F3F3"/>
<path d="M184.245 29.6101C184.263 29.6382 184.267 29.6674 184.259 29.6988C184.106 29.6534 183.951 29.6079 183.797 29.5635C183.947 29.5786 184.095 29.595 184.245 29.6101Z" fill="#F3F3F3"/>
<path d="M95.7339 60.5773C95.7005 60.4805 95.6673 60.385 95.6328 60.2882C95.6917 60.2183 95.7516 60.1482 95.8104 60.0771C95.8149 60.2451 95.8203 60.4141 95.8248 60.582C95.7938 60.5937 95.7638 60.5925 95.7339 60.5773Z" fill="#D0D0D0"/>
<path d="M174.031 14.0045C174.081 13.9031 174.131 13.8017 174.181 13.7002C174.325 13.9066 174.173 13.9521 174.031 14.0045Z" fill="#F3F3F3"/>
<path d="M164.554 12.7018C164.547 12.8382 164.539 12.9758 164.533 13.1122C164.248 13.0049 164.425 12.8336 164.479 12.6797C164.503 12.6843 164.529 12.6925 164.554 12.7018Z" fill="#CCCCCC"/>
<path d="M177.504 84.9443C177.48 85.0877 177.563 85.2788 177.342 85.3302C177.279 85.1471 177.361 85.0318 177.504 84.9443Z" fill="#7D7D7D"/>
<path d="M89.375 27.1855C89.4316 27.2428 89.4893 27.3011 89.5458 27.3582C89.4904 27.4013 89.4349 27.4444 89.3794 27.4875C89.3783 27.3873 89.3761 27.2871 89.375 27.1855Z" fill="#CC005F"/>
<path d="M188.656 26.9609C188.806 26.9609 188.956 26.9609 189.106 26.9609C188.957 27.0739 188.806 27.068 188.656 26.9609Z" fill="#F3F3F3"/>
<path d="M178.336 18.434C178.422 18.3326 178.506 18.2324 178.591 18.1309C178.605 18.3198 178.557 18.4527 178.336 18.434Z" fill="#F8F8F8"/>
<path d="M182.314 47.1016C182.331 47.2905 182.284 47.4246 182.062 47.4082C182.146 47.3057 182.23 47.2031 182.314 47.1016Z" fill="#7B7B7B"/>
<path d="M182.391 29.0981C182.525 29.0946 182.675 29.0654 182.702 29.2706C182.547 29.3102 182.425 29.2881 182.391 29.0981Z" fill="#7B7B7B"/>
<path d="M178.581 16.4971C178.583 16.6313 178.62 16.7828 178.432 16.8201C178.387 16.665 178.382 16.5297 178.581 16.4971Z" fill="#7B7B7B"/>
<path d="M95.8211 69.1377C95.8188 69.2053 95.8154 69.2718 95.8131 69.3393C95.7166 69.3358 95.62 69.3336 95.5234 69.3301C95.5586 69.2635 95.5938 69.1983 95.629 69.1318C95.6938 69.1342 95.7565 69.1365 95.8211 69.1377Z" fill="#EBEBEB"/>
<path d="M100.536 40.6807C100.509 40.761 100.484 40.8403 100.457 40.9208C100.419 40.8683 100.381 40.8159 100.344 40.7634C100.408 40.7366 100.472 40.7086 100.537 40.6818L100.536 40.6807Z" fill="#CC005F"/>
<path d="M188.883 30.7035C189.03 30.5531 189.129 30.5718 189.178 30.7875C189.08 30.7595 188.982 30.7316 188.883 30.7035Z" fill="#7B7B7B"/>
<path d="M179.233 76.8833C179.023 76.8109 179.092 76.6244 179.08 76.4717C179.256 76.5567 179.295 76.699 179.233 76.8833Z" fill="#7D7D7D"/>
<path d="M174.586 77.084C174.829 77.1306 174.739 77.3347 174.759 77.4875C174.702 77.3534 174.644 77.218 174.586 77.084Z" fill="#7D7D7D"/>
<path d="M100.836 35.9246C100.868 35.8768 100.901 35.8289 100.934 35.7812C100.962 35.8325 101 35.8815 101.016 35.9374C101.028 35.9817 101.014 36.0342 101.01 36.0832C100.953 36.0307 100.894 35.9771 100.836 35.9246Z" fill="#CC005F"/>
<path d="M175.984 86.4346C176.152 86.4661 176.13 86.6059 176.135 86.7295C176.004 86.6771 175.917 86.5989 175.984 86.4346Z" fill="#7D7D7D"/>
<path d="M177.219 19.7445C177.317 19.6792 177.413 19.614 177.511 19.5498C177.5 19.7492 177.359 19.7433 177.219 19.7445Z" fill="#F8F8F8"/>
<path d="M164.356 4.75208H164.322H164.289V4.32185C164.311 4.32185 164.334 4.31952 164.357 4.31836V4.75208H164.356Z" fill="#7D7D7D"/>
<path d="M178.582 78.4004C178.582 78.5439 178.577 78.6838 178.391 78.6931C178.454 78.5952 178.518 78.4984 178.582 78.4004Z" fill="#7D7D7D"/>
<path d="M47.1786 36.8428C47.183 36.9186 47.1886 36.9955 47.193 37.0712C47.1741 37.0794 47.1552 37.0875 47.1365 37.0946C47.0887 37.0117 47.0399 36.929 46.9922 36.8473C47.0543 36.8462 47.1165 36.8439 47.1786 36.8428Z" fill="#F8F8F8"/>
<path d="M178.784 77.9922C178.781 78.1251 178.794 78.2672 178.613 78.2871C178.569 78.1239 178.658 78.0458 178.784 77.9922Z" fill="#7D7D7D"/>
<path d="M176.218 77.8927C176.201 77.7866 176.183 77.6793 176.164 77.5732C176.41 77.6374 176.265 77.7738 176.218 77.8927Z" fill="#DDDDDD"/>
<path d="M164.554 12.6955C164.531 12.6862 164.505 12.6792 164.479 12.6746C164.454 12.5813 164.263 12.4939 164.471 12.3936C164.499 12.4939 164.527 12.5953 164.554 12.6955Z" fill="#878787"/>
<path d="M174.648 13.0949C174.722 13.0144 174.797 12.934 174.871 12.8535C174.876 13.0098 174.811 13.0996 174.648 13.0949Z" fill="#E7E7E7"/>
<path d="M41.6562 69.6715C41.6806 69.6144 41.705 69.5573 41.7306 69.499C41.7516 69.499 41.7716 69.5001 41.7928 69.5012V69.9408C41.7472 69.851 41.7017 69.7613 41.6562 69.6715Z" fill="#D0D0D0"/>
<path d="M77.4666 60.2705C77.4722 60.3615 77.4788 60.4524 77.4844 60.5433C77.4622 60.5516 77.44 60.5585 77.4167 60.5667C77.3768 60.4746 77.3368 60.3825 77.2969 60.2904C77.3535 60.2834 77.41 60.2776 77.4666 60.2705Z" fill="#AEAEAE"/>
<path d="M139.666 59.5832C139.623 59.6764 139.581 59.7709 139.538 59.8642C139.514 59.8618 139.491 59.8595 139.469 59.8571V59.5762C139.535 59.5785 139.6 59.5809 139.666 59.5832Z" fill="#EBEBEB"/>
<path d="M171.72 15.9258C171.72 16.0587 171.726 16.1939 171.553 16.2172C171.502 16.0516 171.598 15.9817 171.72 15.9258Z" fill="#878787"/>
<path d="M61.8672 34.2234C61.8727 34.1675 61.8794 34.1116 61.885 34.0557C61.936 34.1057 61.9859 34.1547 62.037 34.2049C61.9805 34.2106 61.9238 34.2177 61.8672 34.2234Z" fill="#FEF6FA"/>
<path d="M177.411 41.0499H177.219C177.251 41.0021 177.283 40.9531 177.315 40.9053C177.347 40.9531 177.379 41.0021 177.411 41.0499Z" fill="#F8F8F8"/>
<path d="M175.812 42.5898L176.037 42.7601C175.891 42.8009 175.843 42.7076 175.812 42.5898Z" fill="#7B7B7B"/>
<path d="M184.172 44.2842C184.11 44.3517 184.049 44.4194 183.988 44.4881C183.967 44.3389 184.049 44.2923 184.172 44.2842Z" fill="#7B7B7B"/>
<path d="M166.739 44.5861C166.709 44.5196 166.679 44.4532 166.648 44.3867C166.765 44.4112 166.874 44.4369 166.739 44.5861Z" fill="#F3F3F3"/>
<path d="M175.586 82.4131C175.697 82.4387 175.787 82.4737 175.667 82.6066C175.64 82.5424 175.613 82.4783 175.586 82.4131Z" fill="#7D7D7D"/>
<path d="M175.545 81.9121C175.554 81.975 175.562 82.0379 175.571 82.1021C175.535 82.0671 175.497 82.0332 175.461 81.9983C175.488 81.9692 175.517 81.9412 175.545 81.9121Z" fill="#7D7D7D"/>
<path d="M175.499 81.1367C175.485 81.2277 175.472 81.3186 175.458 81.4096C175.264 81.2848 175.431 81.2184 175.499 81.1367Z" fill="#7D7D7D"/>
<path d="M175.023 78.8906C175.133 78.9256 175.196 78.977 175.08 79.0855C175.062 79.0201 175.042 78.956 175.023 78.8906Z" fill="#7D7D7D"/>
<path d="M95.875 33.9374C96.0045 33.9198 96.1079 33.9456 96.1261 34.1053C96.0421 34.0493 95.9591 33.9934 95.875 33.9374Z" fill="#CC005F"/>
<path d="M174.761 77.584C174.773 77.6458 174.782 77.7088 174.794 77.7706C174.655 77.7322 174.622 77.6749 174.761 77.584Z" fill="#7D7D7D"/>
<path d="M168.271 11.2845C168.257 11.2121 168.241 11.1398 168.227 11.0664C168.351 11.1142 168.432 11.1725 168.271 11.2845Z" fill="#CCCCCC"/>
<path d="M95.3281 33.7667C95.3725 33.7307 95.4169 33.6933 95.4613 33.6572C95.4858 33.7132 95.5101 33.7691 95.5345 33.8262C95.4657 33.8064 95.3969 33.7866 95.3281 33.7667Z" fill="#CC005F"/>
<path d="M166.865 45.0768C166.733 45.0627 166.745 44.9812 166.784 44.8867C166.881 44.917 166.96 44.9566 166.865 45.0768Z" fill="#F3F3F3"/>
<path d="M182.805 29.2818C182.942 29.143 182.97 29.2515 182.992 29.3739C182.929 29.3436 182.868 29.3133 182.805 29.2818Z" fill="#7B7B7B"/>
<path d="M99.4609 45.3223C99.5175 45.208 99.583 45.1823 99.6606 45.3024C99.6051 45.4284 99.5374 45.4296 99.4609 45.3223Z" fill="#939393"/>
<path d="M167.004 45.7993C166.995 45.7306 166.985 45.6605 166.977 45.5918C167.104 45.6442 167.133 45.7095 167.004 45.7993Z" fill="#F3F3F3"/>
<path d="M176.82 29.1517C176.849 29.0281 176.892 28.9478 177.008 29.083C176.945 29.1063 176.882 29.1296 176.82 29.1517Z" fill="#7B7B7B"/>
<path d="M167.031 15.2109C167.151 15.2342 167.255 15.2657 167.115 15.4103C167.088 15.3438 167.058 15.2773 167.031 15.2109Z" fill="#7D7D7D"/>
<path d="M178.375 28.8728C178.431 28.7982 178.48 28.677 178.576 28.8355C178.508 28.8483 178.442 28.8611 178.375 28.8728Z" fill="#CCCCCC"/>
<path d="M133.102 65.713C133.125 65.6442 133.149 65.5754 133.172 65.5078C133.329 65.6454 133.229 65.685 133.102 65.713Z" fill="#EBEBEB"/>
<path d="M133.18 63.9043C133.156 63.8366 133.133 63.7679 133.109 63.7002C133.24 63.7271 133.333 63.7691 133.18 63.9043Z" fill="#FEF6FA"/>
<path d="M173.406 15.4151C173.356 15.26 173.433 15.1993 173.565 15.1807C173.512 15.2588 173.459 15.3369 173.406 15.4151Z" fill="#F3F3F3"/>
<path d="M181.229 27.6122C181.163 27.6052 181.097 27.5994 181.031 27.5924C181.11 27.4583 181.175 27.4804 181.229 27.6122Z" fill="#F3F3F3"/>
<path d="M194.125 30.5389C194.206 30.5027 194.288 30.4667 194.369 30.4316C194.38 30.4491 194.394 30.4667 194.407 30.483C194.336 30.5296 194.265 30.5751 194.194 30.6218C194.171 30.5937 194.148 30.5669 194.125 30.5389Z" fill="#7B7B7B"/>
<path d="M164.484 26.6842C164.484 26.6167 164.484 26.549 164.484 26.4814C164.53 26.5153 164.577 26.549 164.621 26.5828C164.577 26.6167 164.53 26.6505 164.484 26.6842Z" fill="#F8F8F8"/>
<path d="M167.195 15.8135C167.315 15.8753 167.326 15.943 167.205 16.0176C167.202 15.9499 167.198 15.8812 167.195 15.8135Z" fill="#7D7D7D"/>
<path d="M164.947 16.916C164.953 16.9824 164.96 17.0489 164.968 17.1153C164.823 17.0652 164.811 16.9987 164.947 16.916Z" fill="#CC005F"/>
<path d="M55.5312 58.9795C55.6622 58.8279 55.6855 58.9714 55.7299 59.0588C55.6633 59.032 55.5978 59.0063 55.5312 58.9795Z" fill="#5E5E5E"/>
<path d="M192.116 25.7126C192.052 25.6986 191.986 25.6835 191.922 25.6695C192.016 25.5401 192.074 25.5878 192.116 25.7126Z" fill="#F3F3F3"/>
<path d="M94.6788 25.3863C94.4947 25.2021 94.6478 25.1997 94.7777 25.1846C94.7443 25.2521 94.7122 25.3186 94.6788 25.3863Z" fill="#CC005F"/>
<path d="M54.25 59.0644C54.3056 59.0096 54.3155 58.8277 54.4475 58.9864C54.3821 59.012 54.3155 59.0388 54.25 59.0644Z" fill="#5E5E5E"/>
<path d="M103.381 21.0684C103.347 21.1139 103.313 21.1582 103.279 21.2037C103.26 21.1827 103.223 21.1512 103.227 21.1419C103.246 21.1022 103.278 21.0684 103.305 21.0323C103.338 21.0252 103.365 21.037 103.381 21.0684Z" fill="#CC005F"/>
<path d="M103.479 32.0394C103.434 32.0802 103.389 32.1209 103.344 32.163C103.358 32.1128 103.373 32.0638 103.388 32.0137C103.419 32.0231 103.449 32.0312 103.48 32.0406L103.479 32.0394Z" fill="#CC005F"/>
<path d="M170.93 59.5762C170.925 59.6671 170.921 59.7581 170.915 59.8502C170.898 59.8514 170.879 59.8525 170.862 59.8537C170.845 59.7639 170.83 59.673 170.812 59.5832C170.852 59.5809 170.89 59.5785 170.93 59.5762Z" fill="#F3F3F3"/>
<path d="M76.7109 45.0714C76.7154 45.0026 76.7187 44.9349 76.7232 44.8662C76.7586 44.9245 76.7952 44.9828 76.8308 45.041C76.7907 45.0516 76.7508 45.0609 76.7109 45.0714Z" fill="#878787"/>
<path d="M51.8047 45.1113C51.838 45.1113 51.8713 45.1113 51.9045 45.1113C51.8879 45.1521 51.8713 45.1929 51.8546 45.2326C51.838 45.1918 51.8214 45.1509 51.8047 45.1113Z" fill="#F3F3F3"/>
<path d="M194.195 30.6149C194.138 30.6511 194.082 30.6871 194.025 30.7233C194.008 30.7011 193.993 30.679 193.977 30.658C194.027 30.616 194.077 30.5753 194.126 30.5332C194.149 30.5613 194.172 30.5869 194.195 30.6149Z" fill="#7B7B7B"/>
<path d="M36.1328 28.191V27.9404C36.2061 28.0639 36.236 28.1141 36.2671 28.1643C36.2226 28.1735 36.1783 28.1818 36.1328 28.191Z" fill="#F3F3F3"/>
<path d="M50.6261 59.8909C50.6317 59.8198 50.6372 59.7499 50.6427 59.6787C50.6882 59.6962 50.7348 59.7137 50.7803 59.7312C50.7626 59.7825 50.7448 59.835 50.7259 59.8863C50.6927 59.8874 50.6605 59.8897 50.6261 59.8909Z" fill="#D0D0D0"/>
<path d="M174.957 78.5947C174.957 78.6222 174.957 78.651 174.96 78.6785C174.938 78.6713 174.914 78.6642 174.891 78.657C174.914 78.6366 174.935 78.6162 174.957 78.5947Z" fill="#7D7D7D"/>
<path d="M173.328 15.6124C173.348 15.5777 173.368 15.5417 173.386 15.5068C173.366 15.5417 173.347 15.5777 173.328 15.6124Z" fill="#F3F3F3"/>
<path d="M141.327 40.9668C141.3 40.933 141.271 40.8981 141.242 40.8643C141.271 40.8981 141.299 40.933 141.327 40.9668Z" fill="#F8F8F8"/>
<path d="M175.448 56.5859C175.435 56.6183 175.414 56.641 175.383 56.6554C175.404 56.6327 175.426 56.6099 175.448 56.5859Z" fill="#7B7B7B"/>
<path d="M171.508 61.4207C171.493 61.391 171.477 61.3615 171.461 61.3306C171.483 61.3282 171.504 61.3246 171.528 61.3223C171.528 61.3567 171.521 61.3887 171.508 61.4207Z" fill="#F3F3F3"/>
<path d="M104.45 21.9094C104.433 21.8925 104.415 21.8744 104.398 21.8574C104.423 21.866 104.441 21.884 104.45 21.9094Z" fill="#F8F8F8"/>
<path d="M77.2734 69.1203C77.3111 69.0795 77.3489 69.0399 77.3866 68.999C77.4077 69.0364 77.4298 69.0736 77.4509 69.1122C77.3921 69.1145 77.3322 69.1179 77.2734 69.1203Z" fill="#EBEBEB"/>
<path d="M174.859 78.0947C174.859 78.1223 174.859 78.1487 174.861 78.1763C174.835 78.1644 174.807 78.1512 174.781 78.1392C174.806 78.1248 174.833 78.1103 174.858 78.0947H174.859Z" fill="#7D7D7D"/>
<path d="M166.922 10.3743C166.899 10.3801 166.875 10.3848 166.85 10.3848C166.847 10.3463 166.845 10.3078 166.844 10.2705C166.87 10.3055 166.896 10.3393 166.922 10.3743Z" fill="#ADADAD"/>
<path d="M177.799 79.7891C177.78 79.8238 177.762 79.8574 177.742 79.8922C177.761 79.8574 177.779 79.8238 177.799 79.7891Z" fill="#7D7D7D"/>
<path d="M141.258 30.2955C141.25 30.2742 141.24 30.2541 141.235 30.2327C141.232 30.2222 141.239 30.2091 141.241 30.1973C141.256 30.2186 141.273 30.2387 141.283 30.2623C141.286 30.2683 141.267 30.2837 141.258 30.2955Z" fill="#F8F8F8"/>
<path d="M175.746 83.4229C175.746 83.4539 175.746 83.4839 175.746 83.515C175.724 83.4947 175.702 83.4743 175.68 83.4539C175.702 83.4445 175.724 83.4325 175.746 83.4229Z" fill="#7D7D7D"/>
<path d="M164.37 10.2803C164.371 10.3117 164.373 10.3431 164.374 10.3734C164.348 10.3601 164.322 10.3468 164.297 10.3335C164.322 10.3153 164.345 10.2984 164.37 10.2803Z" fill="#7D7D7D"/>
<path d="M177.607 84.2295C177.607 84.2606 177.607 84.2918 177.607 84.3216C177.585 84.3014 177.563 84.2798 177.539 84.2594C177.563 84.2487 177.585 84.2391 177.607 84.2295Z" fill="#7D7D7D"/>
<path d="M176.875 85.8564C176.895 85.8145 176.915 85.7724 176.936 85.7305C176.968 85.7387 176.999 85.748 177.032 85.7562C177.026 85.7911 177.021 85.8261 177.015 85.8623C176.968 85.86 176.922 85.8588 176.876 85.8564H176.875Z" fill="#DDDDDD"/>
<path d="M176.879 85.8525C176.926 85.8549 176.973 85.8561 177.018 85.8583C177.005 85.9364 176.991 86.0157 176.971 86.1323C176.818 86.0484 176.789 85.9703 176.879 85.8525Z" fill="#7D7D7D"/>
<path d="M77.3828 68.88C77.4017 68.8497 77.4184 68.8217 77.4349 68.7949C77.4505 68.8217 77.4772 68.8485 77.4772 68.8754C77.4772 68.8998 77.4472 68.9243 77.4294 68.9477C77.4139 68.9255 77.3984 68.9022 77.3828 68.88Z" fill="#AEAEAE"/>
<path d="M95.8136 69.1371L95.625 69.1313C95.6705 69.0368 95.717 68.9424 95.8136 68.7441V69.1371Z" fill="#D0D0D0"/>
<path d="M95.7344 60.5771C95.7644 60.5928 95.7957 60.594 95.8268 60.582C95.8113 60.6072 95.7945 60.6325 95.7789 60.6589C95.7644 60.6325 95.7489 60.6035 95.7344 60.5771Z" fill="#2F2F2F"/>
<path d="M50.6328 62.5008C50.6663 62.4996 50.6997 62.4973 50.7343 62.4961C50.7176 62.5225 50.7019 62.5501 50.6852 62.5766C50.6685 62.5513 50.6496 62.5261 50.6328 62.5008Z" fill="#2F2F2F"/>
</svg>
